<svg version="1.0" xmlns="http://www.w3.org/2000/svg"
 width="225.000000pt" height="225.000000pt" viewBox="0 0 225.000000 225.000000"
 preserveAspectRatio="xMidYMid meet">

<g transform="translate(0.000000,225.000000) scale(0.100000,-0.100000)"
fill="red" stroke="none">
<path d="M925 2053 c-97 -20 -259 -84 -245 -96 7 -5 1371 -761 1382 -766 15
-5 -1 103 -29 198 -96 335 -370 591 -708 662 -110 23 -299 24 -400 2z"/>
<path d="M462 1784 c3 -5 191 -344 418 -754 227 -410 424 -764 437 -787 l24
-42 52 15 c77 22 212 89 281 138 77 55 176 155 230 233 47 69 108 194 130 270
l15 52 -42 24 c-23 14 -377 210 -787 437 -410 227 -749 415 -754 418 -5 3 -7
1 -4 -4z"/>
<path d="M252 1498 c-50 -120 -63 -184 -69 -328 -6 -165 11 -273 66 -406 109
-266 335 -468 612 -547 95 -28 203 -44 198 -30 -13 32 -765 1382 -771 1383 -3
0 -20 -33 -36 -72z"/>
</g>
</svg>
